<svg width="25" height="26" viewBox="0 0 25 26" fill="none" xmlns="http://www.w3.org/2000/svg">
<path fill-rule="evenodd" clip-rule="evenodd" d="M5.97474 11.2121C5.97474 8.6086 8.39723 5.78369 12 5.78369C15.6027 5.78369 18.0252 8.6086 18.0252 11.2121C18.0252 11.8801 18.1102 12.3478 18.2263 12.7074C18.3427 13.0682 18.4978 13.3454 18.6765 13.6446C18.6948 13.6752 18.7136 13.7063 18.7327 13.7381C18.8957 14.009 19.085 14.3235 19.2295 14.7016C19.3961 15.1375 19.5 15.6433 19.5 16.3003C19.5 16.3178 19.4992 16.3354 19.4977 16.3529C19.4387 17.0322 19.2369 17.6283 18.8529 18.125C18.4706 18.6195 17.9425 18.9705 17.3057 19.2199C16.0615 19.7071 14.284 19.8493 12 19.8493C9.717 19.8493 7.93959 19.7094 6.69536 19.2234C6.05838 18.9746 5.52998 18.6238 5.14739 18.1286C4.7632 17.6313 4.56139 17.034 4.50228 16.3529C4.50076 16.3354 4.5 16.3178 4.5 16.3003C4.5 15.6433 4.60388 15.1375 4.7705 14.7016C4.91497 14.3235 5.10425 14.009 5.2673 13.7381C5.28641 13.7063 5.30516 13.6752 5.32344 13.6446C5.50216 13.3454 5.65728 13.0682 5.77369 12.7074C5.88972 12.3478 5.97474 11.8801 5.97474 11.2121Z" fill="#1C304F"/>
<path fill-rule="evenodd" clip-rule="evenodd" d="M9.58253 21.229C9.83235 21.0046 10.2168 21.0251 10.4413 21.2749C11.314 22.2461 12.6183 22.237 13.4852 21.2744C13.7099 21.0248 14.0945 21.0047 14.344 21.2295C14.5936 21.4542 14.6137 21.8387 14.3889 22.0883C13.0437 23.582 10.8972 23.602 9.53664 22.0878C9.31217 21.838 9.33272 21.4535 9.58253 21.229Z" fill="#9CA4BA"/>
<path d="M21 8.50002C21 10.1569 19.6569 11.5 18 11.5C16.3432 11.5 15 10.1569 15 8.50002C15 6.84315 16.3432 5.5 18 5.5C19.6569 5.5 21 6.84315 21 8.50002Z" fill="#FF5151"/>
<path fill-rule="evenodd" clip-rule="evenodd" d="M18 10.75C19.2427 10.75 20.25 9.74267 20.25 8.50002C20.25 7.25737 19.2427 6.25 18 6.25C16.7574 6.25 15.75 7.25737 15.75 8.50002C15.75 9.74267 16.7574 10.75 18 10.75ZM18 11.5C19.6569 11.5 21 10.1569 21 8.50002C21 6.84315 19.6569 5.5 18 5.5C16.3432 5.5 15 6.84315 15 8.50002C15 10.1569 16.3432 11.5 18 11.5Z" fill="white"/>
</svg>
