<svg width="9" height="9" viewBox="0 0 9 9" fill="none" xmlns="http://www.w3.org/2000/svg">
<path d="M7.48755 8.60496C7.43237 8.60501 7.37724 8.60154 7.3225 8.59456C5.54679 8.36444 3.89674 7.55446 2.62857 6.29038C1.3646 5.02216 0.554704 3.3721 0.324619 1.59641C0.301083 1.41421 0.316646 1.22908 0.370269 1.05337C0.423893 0.877652 0.514347 0.715383 0.635605 0.57737C0.755189 0.441515 0.902336 0.332689 1.06725 0.258132C1.23217 0.183576 1.41108 0.145 1.59207 0.144973H2.88051C3.18185 0.143555 3.47387 0.249394 3.70432 0.443558C3.93478 0.637722 4.08865 0.907543 4.13839 1.20476C4.15294 1.30205 4.17082 1.39768 4.19182 1.49288C4.234 1.68254 4.28908 1.8691 4.35667 2.05126C4.42817 2.25072 4.42249 2.4697 4.34075 2.66519C4.25901 2.86067 4.10712 3.01852 3.91492 3.10772L3.72036 3.19836C4.19445 4.03334 4.88561 4.7245 5.72058 5.1986L5.81143 5.00361C5.90092 4.81169 6.05883 4.66008 6.25424 4.57849C6.44965 4.4969 6.66848 4.49119 6.86788 4.56248C7.05044 4.62998 7.23734 4.68512 7.4273 4.72754C7.52188 4.74833 7.61751 4.76621 7.71334 4.78033C8.01076 4.82988 8.28081 4.98369 8.47515 5.21422C8.66949 5.44474 8.77541 5.73693 8.77395 6.03844V7.32689C8.7739 7.50791 8.73532 7.68684 8.66077 7.85179C8.58621 8.01674 8.4774 8.16393 8.34156 8.28356C8.10542 8.49094 7.80182 8.6052 7.48755 8.60496Z" fill="#EB3352"/>
<path d="M8.37076 0.144928H6.75931C6.65246 0.144928 6.54999 0.187372 6.47444 0.262923C6.39889 0.338475 6.35645 0.440944 6.35645 0.54779C6.35645 0.654635 6.39889 0.757105 6.47444 0.832656C6.54999 0.908207 6.65246 0.950651 6.75931 0.950651H7.39822L6.0716 2.27727C6.03419 2.31468 6.00452 2.35909 5.98428 2.40796C5.96403 2.45683 5.95361 2.50921 5.95361 2.56211C5.95361 2.61501 5.96403 2.66739 5.98428 2.71626C6.00452 2.76513 6.03419 2.80954 6.0716 2.84695C6.109 2.88435 6.15341 2.91402 6.20228 2.93427C6.25115 2.95451 6.30353 2.96493 6.35643 2.96493C6.40933 2.96493 6.46171 2.95451 6.51058 2.93427C6.55945 2.91402 6.60386 2.88435 6.64127 2.84695L7.96789 1.52032V2.15924C7.96789 2.26608 8.01033 2.36855 8.08589 2.4441C8.16144 2.51965 8.26391 2.5621 8.37075 2.5621C8.4776 2.5621 8.58007 2.51965 8.65562 2.4441C8.73117 2.36855 8.77361 2.26608 8.77361 2.15924V0.54779C8.77363 0.494882 8.76322 0.442489 8.74298 0.393606C8.72273 0.344722 8.69306 0.300306 8.65565 0.262894C8.61824 0.225482 8.57382 0.195808 8.52494 0.175567C8.47606 0.155326 8.42366 0.144915 8.37076 0.144928Z" fill="#FFCDCD"/>
</svg>
