<svg width="26" height="25" viewBox="0 0 26 25" fill="none" xmlns="http://www.w3.org/2000/svg">
<path d="M8.46594 10.7283H2.33986C1.71959 10.7277 1.12488 10.4811 0.686219 10.0426C0.247557 9.60403 0.00076739 9.0094 0 8.38913V2.33913C0.00076739 1.71886 0.247557 1.12423 0.686219 0.685707C1.12488 0.24718 1.71959 0.000575268 2.33986 0H8.46594C9.08608 0.000767027 9.6806 0.247457 10.1191 0.685963C10.5576 1.12447 10.8043 1.71899 10.8051 2.33913V8.38913C10.8043 9.00927 10.5576 9.60379 10.1191 10.0423C9.6806 10.4808 9.08608 10.7275 8.46594 10.7283ZM2.33986 1.81159C2.19994 1.81179 2.06579 1.8674 1.96679 1.96627C1.86778 2.06514 1.81198 2.19921 1.81159 2.33913V8.38913C1.81198 8.52905 1.86778 8.66312 1.96679 8.76199C2.06579 8.86086 2.19994 8.91648 2.33986 8.91667H8.46594C8.60579 8.91648 8.73986 8.86083 8.83875 8.76194C8.93764 8.66305 8.99329 8.52898 8.99348 8.38913V2.33913C8.99329 2.19928 8.93764 2.06521 8.83875 1.96632C8.73986 1.86743 8.60579 1.81179 8.46594 1.81159H2.33986ZM8.49565 25H2.36957C1.74923 24.9992 1.15453 24.7525 0.715885 24.3138C0.277243 23.8752 0.0304772 23.2805 0.0297102 22.6601V16.6109C0.0304775 15.9906 0.277267 15.396 0.715929 14.9574C1.15459 14.5189 1.7493 14.2723 2.36957 14.2717H8.49565C9.11554 14.2729 9.70969 14.5197 10.1479 14.9582C10.5861 15.3967 10.8326 15.991 10.8333 16.6109V22.6601C10.8328 23.2802 10.5864 23.8746 10.1481 24.3133C9.70993 24.7519 9.11567 24.9988 8.49565 25ZM2.36957 16.0833C2.22965 16.0835 2.0955 16.1391 1.9965 16.238C1.89749 16.3369 1.84169 16.471 1.8413 16.6109V22.6601C1.8415 22.8002 1.89721 22.9344 1.99624 23.0335C2.09527 23.1325 2.22952 23.1882 2.36957 23.1884H8.49565C8.63557 23.188 8.76964 23.1322 8.86851 23.0332C8.96738 22.9342 9.023 22.8001 9.02319 22.6601V16.6109C9.023 16.471 8.96736 16.3369 8.86846 16.2381C8.76957 16.1392 8.6355 16.0835 8.49565 16.0833H2.36957ZM22.6609 25H16.5348C15.9145 24.9992 15.3197 24.7525 14.8811 24.3138C14.4425 23.8752 14.1957 23.2805 14.1949 22.6601V16.6109C14.1957 15.9906 14.4425 15.396 14.8811 14.9574C15.3198 14.5189 15.9145 14.2723 16.5348 14.2717H22.6609C23.281 14.2725 23.8755 14.5192 24.314 14.9577C24.7525 15.3962 24.9992 15.9907 25 16.6109V22.6601C24.9994 23.2804 24.7528 23.8751 24.3143 24.3138C23.8758 24.7524 23.2811 24.9992 22.6609 25ZM16.5348 16.087C16.3949 16.0871 16.2607 16.1428 16.1617 16.2416C16.0627 16.3405 16.0069 16.4746 16.0065 16.6145V22.6638C16.0067 22.8038 16.0624 22.9381 16.1615 23.0371C16.2605 23.1361 16.3947 23.1918 16.5348 23.192H22.6609C22.8008 23.1916 22.9349 23.1358 23.0337 23.0368C23.1326 22.9378 23.1882 22.8037 23.1884 22.6638V16.6109C23.1882 16.471 23.1326 16.3369 23.0337 16.2381C22.9348 16.1392 22.8007 16.0835 22.6609 16.0833L16.5348 16.087ZM19.6014 10.7283C18.5426 10.7204 17.5098 10.3992 16.6332 9.80524C15.7567 9.21125 15.0756 8.37105 14.6758 7.39055C14.2761 6.41004 14.1755 5.33314 14.3869 4.29559C14.5983 3.25804 15.1121 2.3063 15.8636 1.56035C16.6151 0.814393 17.5707 0.307626 18.6097 0.103929C19.6488 -0.0997673 20.725 0.00872625 21.7025 0.415732C22.68 0.822739 23.5151 1.51004 24.1026 2.39098C24.6901 3.27193 25.0036 4.30708 25.0036 5.36594C24.9965 6.79284 24.4238 8.15868 23.4111 9.16392C22.3984 10.1692 21.0284 10.7317 19.6014 10.7283ZM19.6014 1.81522C18.9009 1.82308 18.2184 2.03799 17.6397 2.4329C17.0611 2.82781 16.6122 3.38506 16.3496 4.03453C16.0869 4.68399 16.0223 5.39664 16.1637 6.08276C16.3052 6.76889 16.6465 7.39783 17.1446 7.89043C17.6427 8.38303 18.2755 8.71727 18.9631 8.85108C19.6508 8.98488 20.3627 8.91228 21.0092 8.6424C21.6556 8.37252 22.2079 7.91743 22.5963 7.33441C22.9847 6.7514 23.192 6.0665 23.192 5.36594C23.1863 4.41876 22.805 3.51255 22.1318 2.84619C21.4587 2.17982 20.5486 1.80774 19.6014 1.81159V1.81522Z" fill="#AD2B39"/>
</svg>
