<svg width="56" height="56" viewBox="0 0 56 56" fill="none" xmlns="http://www.w3.org/2000/svg">
<path d="M0 28C0 12.536 12.536 0 28 0C43.464 0 56 12.536 56 28C56 43.464 43.464 56 28 56C12.536 56 0 43.464 0 28Z" fill="#7A8EAD"/>
<path d="M36.8661 24.7273L35.3688 21.6836C35.3329 21.6095 35.2753 21.548 35.2038 21.5071C35.1323 21.4662 35.0501 21.4479 34.9679 21.4545H21.0588C20.9741 21.4444 20.8883 21.4611 20.8135 21.5022C20.7386 21.5432 20.6785 21.6067 20.6416 21.6836C20.6416 21.6836 19.5125 24.0564 19.1525 24.7273C19.034 24.9388 18.9826 25.1813 19.0052 25.4227C19.0745 26.1308 19.4057 26.7876 19.9339 27.2643C20.462 27.741 21.1492 28.0034 21.8607 28C22.4492 27.9955 23.0214 27.8067 23.497 27.46C23.7201 27.8385 24.0275 28.1604 24.3952 28.4007C24.763 28.641 25.1813 28.7932 25.6175 28.8455C26.0537 28.8977 26.4961 28.8486 26.9102 28.702C27.3244 28.5553 27.6991 28.3151 28.0052 28C28.3085 28.3107 28.6787 28.5481 29.0876 28.6941C29.4965 28.8402 29.9333 28.8911 30.3648 28.843C30.7963 28.7949 31.2112 28.649 31.5778 28.4164C31.9444 28.1839 32.2532 27.8708 32.4807 27.5009C32.9563 27.8476 33.5285 28.0364 34.117 28.0409C34.8451 28.0532 35.5502 27.7862 36.0874 27.2947C36.6245 26.8031 36.953 26.1244 37.0052 25.3982C37.0249 25.1658 36.9766 24.9327 36.8661 24.7273Z" fill="white"/>
<path d="M21.1238 20.6364H34.8856C34.9513 20.6363 35.016 20.6205 35.0742 20.5902C35.1325 20.5599 35.1826 20.516 35.2203 20.4622C35.258 20.4084 35.2822 20.3464 35.2909 20.2813C35.2996 20.2162 35.2925 20.1499 35.2701 20.0882C35.1571 19.7704 34.9487 19.4953 34.6734 19.3005C34.398 19.1057 34.0692 19.0007 33.7319 19H22.2774C21.9401 19.0007 21.6113 19.1057 21.336 19.3005C21.0606 19.4953 20.8522 19.7704 20.7392 20.0882C20.7169 20.1499 20.7098 20.2162 20.7184 20.2813C20.7271 20.3464 20.7513 20.4084 20.789 20.4622C20.8267 20.516 20.8769 20.5599 20.9351 20.5902C20.9934 20.6205 21.0581 20.6363 21.1238 20.6364Z" fill="white"/>
<path d="M34.8776 28.7281C34.2226 28.8612 33.5437 28.8132 32.914 28.589C32.8447 28.5647 32.7702 28.5595 32.6982 28.5739C32.6263 28.5883 32.5595 28.6218 32.5049 28.6708C31.9243 29.1822 31.1994 29.5009 30.43 29.583C29.6607 29.6651 28.8848 29.5064 28.2094 29.129C28.1473 29.0931 28.0767 29.0742 28.0049 29.0742C27.9331 29.0742 27.8625 29.0931 27.8004 29.129C27.125 29.5064 26.3491 29.6651 25.5798 29.583C24.8104 29.5009 24.0855 29.1822 23.5049 28.6708C23.4503 28.6218 23.3835 28.5883 23.3116 28.5739C23.2396 28.5595 23.1651 28.5647 23.0958 28.589C22.4686 28.8117 21.7927 28.8597 21.1404 28.7281C21.0806 28.7158 21.0188 28.7167 20.9594 28.7309C20.9001 28.745 20.8445 28.772 20.7967 28.8099C20.75 28.8488 20.7125 28.8977 20.6871 28.9529C20.6616 29.0081 20.6487 29.0682 20.6494 29.129V35.3636C20.6494 35.7976 20.8218 36.2138 21.1287 36.5206C21.4356 36.8275 21.8518 36.9999 22.2858 36.9999H27.604C27.7125 36.9999 27.8165 36.9568 27.8933 36.8801C27.97 36.8034 28.0131 36.6993 28.0131 36.5908V31.2727C28.0131 31.1642 28.0562 31.0601 28.1329 30.9834C28.2096 30.9067 28.3137 30.8636 28.4222 30.8636H32.5131C32.6216 30.8636 32.7256 30.9067 32.8023 30.9834C32.8791 31.0601 32.9222 31.1642 32.9222 31.2727V36.5908C32.9222 36.6993 32.9653 36.8034 33.042 36.8801C33.1187 36.9568 33.2228 36.9999 33.3313 36.9999H33.7322C34.1662 36.9999 34.5824 36.8275 34.8893 36.5206C35.1961 36.2138 35.3685 35.7976 35.3685 35.3636V29.1454C35.3685 29.0847 35.3551 29.0248 35.3291 28.97C35.3031 28.9152 35.2652 28.8668 35.2182 28.8284C35.1712 28.7901 35.1163 28.7626 35.0574 28.7481C34.9985 28.7336 34.9371 28.7323 34.8776 28.7445V28.7281ZM26.3685 33.7272C26.3685 33.8357 26.3254 33.9398 26.2487 34.0165C26.172 34.0932 26.0679 34.1363 25.9594 34.1363H23.5049C23.3964 34.1363 23.2923 34.0932 23.2156 34.0165C23.1389 33.9398 23.0958 33.8357 23.0958 33.7272V31.2727C23.0958 31.1642 23.1389 31.0601 23.2156 30.9834C23.2923 30.9067 23.3964 30.8636 23.5049 30.8636H25.9594C26.0679 30.8636 26.172 30.9067 26.2487 30.9834C26.3254 31.0601 26.3685 31.1642 26.3685 31.2727V33.7272Z" fill="white"/>
</svg>
