<svg width="56" height="56" viewBox="0 0 56 56" fill="none" xmlns="http://www.w3.org/2000/svg">
<path d="M0 28C0 12.536 12.536 0 28 0C43.464 0 56 12.536 56 28C56 43.464 43.464 56 28 56C12.536 56 0 43.464 0 28Z" fill="#AD2B39"/>
<path d="M23.8837 34.2171C24.6301 34.2171 25.2416 34.8416 25.2416 35.6131C25.2416 36.3754 24.6301 37 23.8837 37C23.1283 37 22.5167 36.3754 22.5167 35.6131C22.5167 34.8416 23.1283 34.2171 23.8837 34.2171ZM34.0008 34.2171C34.7472 34.2171 35.3587 34.8416 35.3587 35.6131C35.3587 36.3754 34.7472 37 34.0008 37C33.2454 37 32.6339 36.3754 32.6339 35.6131C32.6339 34.8416 33.2454 34.2171 34.0008 34.2171ZM19.7921 19.0079L21.9369 19.3376C22.2426 19.3936 22.4675 19.6499 22.4944 19.9621L22.6653 22.0195C22.6923 22.3143 22.9261 22.5347 23.2139 22.5347H35.3589C35.9075 22.5347 36.2672 22.7276 36.6269 23.1501C36.9866 23.5726 37.0496 24.1788 36.9687 24.7289L36.1143 30.754C35.9525 31.9122 34.9812 32.7654 33.8391 32.7654H24.0277C22.8317 32.7654 21.8425 31.8295 21.7435 30.6172L20.9162 20.6051L19.5582 20.3663C19.1985 20.302 18.9467 19.9438 19.0097 19.5764C19.0726 19.2007 19.4233 18.9518 19.7921 19.0079ZM32.5 24.85H27.1998C26.8221 24.85 26.5253 25.1531 26.5253 25.5388C26.5253 25.9154 26.8221 26.2277 27.1998 26.2277H32.5C32.8777 26.2277 33.1745 25.9154 33.1745 25.5388C33.1745 25.1531 32.8777 24.85 32.5 24.85Z" fill="white"/>
</svg>
