<svg width="14" height="12" viewBox="0 0 14 12" fill="none" xmlns="http://www.w3.org/2000/svg">
<path d="M6.89355 3.79854L8.89764 5.78801L8.90718 5.6838C8.90718 4.63853 8.05148 3.78906 6.99853 3.78906L6.89355 3.79854Z" fill="#ACBAC3"/>
<path d="M6.99818 2.52621C8.75414 2.52621 10.1793 3.94095 10.1793 5.68411C10.1793 5.86013 10.1638 6.03262 10.1347 6.20054C10.0662 6.59637 10.1387 7.02063 10.4238 7.30365L11.1705 8.04498C11.5358 8.40758 12.1225 8.43833 12.4765 8.06479C12.672 7.85853 12.8558 7.64122 13.0269 7.41391C13.7957 6.39272 13.7954 4.97559 13.0273 3.95397C11.6554 2.12938 9.46846 0.947266 6.99821 0.947266C6.58674 0.947266 6.18343 0.980958 5.79046 1.04523C5.16189 1.14804 4.98613 1.90758 5.43867 2.35578C5.6811 2.59588 6.04007 2.66045 6.37417 2.59116C6.57579 2.54935 6.78439 2.52621 6.99818 2.52621Z" fill="#ACBAC3"/>
<path d="M1.04474 0.399714C0.819597 0.623211 0.819597 0.987316 1.04474 1.21081L2.08678 2.24527L2.37627 2.53264C1.84568 2.94445 1.37116 3.42483 0.967506 3.96114C0.20188 4.97837 0.202679 6.38952 0.966488 7.40812C2.33733 9.23626 4.52779 10.4211 6.99841 10.4211C7.98455 10.4211 8.92614 10.2316 9.78823 9.88737L10.0586 10.1558L11.5123 11.6013C11.7343 11.8221 12.0927 11.8226 12.3152 11.6025C12.5406 11.3796 12.541 11.0158 12.3161 10.7925L1.84998 0.399769C1.62717 0.17852 1.26758 0.178495 1.04474 0.399714ZM4.15451 4.29475L5.13747 5.27054C5.10884 5.40634 5.08975 5.54211 5.08975 5.68422C5.08975 6.72949 5.94546 7.57895 6.99841 7.57895C7.14155 7.57895 7.27835 7.56001 7.41196 7.53159L8.39491 8.50738C7.97182 8.7158 7.50104 8.84212 6.99841 8.84212C5.24244 8.84212 3.81731 7.42737 3.81731 5.68422C3.81731 5.18528 3.94456 4.7179 4.15451 4.29475Z" fill="#ACBAC3"/>
</svg>
