<svg width="25" height="26" viewBox="0 0 25 26" fill="none" xmlns="http://www.w3.org/2000/svg">
<path d="M17.7139 4.40625C19.0234 4.40625 20.2832 4.91233 21.21 5.8204C22.1377 6.72656 22.6562 7.94878 22.6562 9.2283V16.7717C22.6562 19.4358 20.4395 21.5938 17.7139 21.5938H8.06641C5.34082 21.5938 3.125 19.4358 3.125 16.7717V9.2283C3.125 6.56424 5.33105 4.40625 8.06641 4.40625H17.7139ZM18.8184 9.37153C18.6133 9.36102 18.418 9.42882 18.2705 9.5625L13.8672 13C13.3008 13.4593 12.4893 13.4593 11.9141 13L7.51953 9.5625C7.21582 9.34288 6.7959 9.37153 6.54297 9.62934C6.2793 9.88715 6.25 10.2977 6.47363 10.5842L6.60156 10.7083L11.0449 14.0981C11.5918 14.5182 12.2549 14.7474 12.9492 14.7474C13.6416 14.7474 14.3164 14.5182 14.8623 14.0981L19.2676 10.651L19.3457 10.5747C19.5791 10.2977 19.5791 9.8967 19.335 9.61979C19.1992 9.47752 19.0127 9.39062 18.8184 9.37153Z" fill="#1C304F"/>
</svg>
