<svg width="10" height="14" viewBox="0 0 10 14" fill="none" xmlns="http://www.w3.org/2000/svg">
<path d="M9 6V4C9 2.93913 8.57857 1.92172 7.82843 1.17157C7.07828 0.421427 6.06087 0 5 0C3.93913 0 2.92172 0.421427 2.17157 1.17157C1.42143 1.92172 1 2.93913 1 4V6H0V9C0 10.3261 0.526784 11.5979 1.46447 12.5355C2.40215 13.4732 3.67392 14 5 14C6.32608 14 7.59785 13.4732 8.53553 12.5355C9.47322 11.5979 10 10.3261 10 9V6H9ZM5 10C4.73478 10 4.48043 9.89464 4.29289 9.70711C4.10536 9.51957 4 9.26522 4 9C4 8.73478 4.10536 8.48043 4.29289 8.29289C4.48043 8.10536 4.73478 8 5 8C5.26522 8 5.51957 8.10536 5.70711 8.29289C5.89464 8.48043 6 8.73478 6 9C6 9.26522 5.89464 9.51957 5.70711 9.70711C5.51957 9.89464 5.26522 10 5 10ZM7.5 6H2.5V4C2.5 2.621 3.622 1.5 5 1.5C6.378 1.5 7.5 2.621 7.5 4V6Z" fill="#8991AC"/>
</svg>
