<svg width="127" height="27" viewBox="0 0 127 27" fill="none" xmlns="http://www.w3.org/2000/svg">
<path d="M6.43875 5.23231V10.8059H15.4391V15.6632H6.43875V21.5761H16.57V26.735H0V0.111084H16.57V5.23231H6.43875Z" fill="#1A1A1A"/>
<path d="M72.8916 0.111084V10.4289H62.7981V0.111084H56.3574V10.15C57.5708 11.9112 58.2205 13.9995 58.2205 16.1382C58.2205 18.277 57.5708 20.3653 56.3574 22.1265V26.735H62.7962V15.6255H72.8897V26.735H79.3662V0.111084H72.8916Z" fill="#1A1A1A"/>
<path d="M102.26 5.72363V26.7363H95.7833V22.9326C95.1903 24.1526 94.2551 25.1737 93.0917 25.8711C91.8327 26.6136 90.3911 26.989 88.9299 26.9549C86.5185 26.9549 84.6041 26.1513 83.1866 24.5442C81.7692 22.937 81.0599 20.7304 81.0586 17.9245V5.72363H87.4672V17.1347C87.4672 18.5647 87.8373 19.6755 88.5774 20.4672C89.3175 21.2588 90.3152 21.654 91.5706 21.6528C92.8774 21.6528 93.9072 21.2387 94.6599 20.4106C95.4126 19.5825 95.7896 18.4026 95.7908 16.8708V5.72363H102.26Z" fill="#1A1A1A"/>
<path d="M121.822 6.75918C123.231 7.67182 124.353 8.96347 125.06 10.4856C125.849 12.1066 126.245 14.021 126.246 16.2288C126.246 18.414 125.851 20.3222 125.06 21.9532C124.27 23.5843 123.19 24.8333 121.822 25.7004C120.429 26.5727 118.814 27.0237 117.17 26.999C115.564 26.999 114.182 26.6353 113.023 25.9077C111.89 25.2055 111.007 24.1641 110.5 22.9315V26.7352H104.066V0H110.505V9.52619C111.013 8.2941 111.896 7.25335 113.029 6.55185C114.183 5.82428 115.565 5.45987 117.176 5.45862C118.818 5.43474 120.431 5.88642 121.822 6.75918ZM111.774 12.4817C110.909 13.4002 110.476 14.6493 110.475 16.2288C110.475 17.7857 110.908 19.0285 111.774 19.9571C112.639 20.8857 113.75 21.35 115.106 21.35C116.488 21.35 117.6 20.8983 118.441 19.9948C119.281 19.0913 119.701 17.8347 119.701 16.2251C119.701 14.6191 119.281 13.3626 118.441 12.4553C117.6 11.548 116.488 11.0963 115.106 11.1001C113.747 11.1051 112.636 11.5656 111.774 12.4817Z" fill="#1A1A1A"/>
<path d="M24.9272 12.5948L22.2205 16.1384L24.9272 19.8346V26.7352H18.3301V0H24.9272V12.5948Z" fill="#1A1A1A"/>
<path d="M39.373 5.77148H31.645L23.7285 16.1383L31.4565 26.6937H39.373L30.7026 16.1383L39.373 5.77148Z" fill="#EB3352"/>
<path d="M46.1589 5.58228C44.0712 5.58228 42.0304 6.20133 40.2946 7.36117C38.5588 8.521 37.2059 10.1695 36.407 12.0983C35.6081 14.027 35.3991 16.1493 35.8063 18.1969C36.2136 20.2444 37.2189 22.1252 38.6951 23.6014C40.1713 25.0775 42.0521 26.0828 44.0996 26.4901C46.1471 26.8974 48.2695 26.6884 50.1982 25.8895C52.1269 25.0906 53.7755 23.7377 54.9353 22.0018C56.0951 20.266 56.7142 18.2253 56.7142 16.1376C56.7142 13.3382 55.6021 10.6534 53.6226 8.67386C51.6431 6.69435 48.9583 5.58228 46.1589 5.58228ZM39.788 17.31C39.8099 17.6739 39.8597 18.0356 39.9369 18.3919C40.1167 19.1679 40.3691 19.9251 40.6908 20.6538C40.2923 20.4627 39.93 20.2037 39.6202 19.8885C39.4615 19.7299 39.3147 19.5598 39.181 19.3796C39.1132 19.2891 39.0566 19.1911 38.9925 19.0969C38.9281 19.0023 38.8713 18.9027 38.8229 18.7991C38.6086 18.3913 38.455 17.9544 38.3668 17.5023C38.3237 17.276 38.2929 17.0476 38.2744 16.8181C38.2744 16.59 38.2612 16.36 38.2744 16.1338C38.3294 15.2384 38.577 14.3653 39.0001 13.5742C39.2046 13.1888 39.4484 12.8256 39.7276 12.4904C40.0036 12.1507 40.3274 11.853 40.6889 11.6064C40.4816 12.4546 40.2705 13.2255 40.1065 13.9907C39.9378 14.7234 39.8282 15.4684 39.7785 16.2187C39.7559 16.5822 39.759 16.9469 39.788 17.31Z" fill="#EB3352"/>
</svg>
