<svg width="32" height="32" viewBox="0 0 32 32" fill="none" xmlns="http://www.w3.org/2000/svg">
<path d="M22.6737 5C24.35 5 25.9625 5.64778 27.1487 6.81011C28.3362 7.97 29 9.53444 29 11.1722V20.8278C29 24.2378 26.1625 27 22.6737 27H10.325C6.83625 27 4 24.2378 4 20.8278V11.1722C4 7.76222 6.82375 5 10.325 5H22.6737ZM24.0875 11.3556C23.825 11.3421 23.575 11.4289 23.3862 11.6L17.75 16C17.025 16.5879 15.9862 16.5879 15.25 16L9.625 11.6C9.23625 11.3189 8.69875 11.3556 8.375 11.6856C8.0375 12.0156 8 12.5411 8.28625 12.9078L8.45 13.0667L14.1375 17.4056C14.8375 17.9433 15.6863 18.2367 16.575 18.2367C17.4613 18.2367 18.325 17.9433 19.0238 17.4056L24.6625 12.9933L24.7625 12.8956C25.0613 12.5411 25.0613 12.0278 24.7488 11.6733C24.575 11.4912 24.3363 11.38 24.0875 11.3556Z" fill="#EB3352"/>
</svg>
