<svg width="20" height="20" viewBox="0 0 20 20" fill="none" xmlns="http://www.w3.org/2000/svg">
<path d="M15.4 4.6H4.6M16.3 1H3.7C2.98416 1.00078 2.29785 1.2855 1.79167 1.79167C1.2855 2.29785 1.00078 2.98416 1 3.7V4.75469C1.00083 5.12674 1.07891 5.49456 1.22928 5.83486C1.23698 5.85398 1.24879 5.86958 1.25774 5.88803C1.38857 6.17589 1.56909 6.43845 1.79102 6.66367L7.3 12.1727V18.1C7.30003 18.2534 7.33927 18.4043 7.41398 18.5382C7.4887 18.6722 7.59641 18.7849 7.72691 18.8655C7.8574 18.9462 8.00634 18.9922 8.15959 18.9991C8.31284 19.006 8.46531 18.9736 8.60254 18.9051L12.2025 17.1051C12.352 17.0303 12.4777 16.9154 12.5656 16.7732C12.6534 16.631 12.7 16.4671 12.7 16.3V12.1727L18.209 6.6637C18.4308 6.43859 18.6112 6.17619 18.742 5.8885C18.7511 5.86983 18.7631 5.85401 18.7708 5.83467C18.9212 5.49443 18.9992 5.12667 19 4.75469V3.7C18.9992 2.98416 18.7145 2.29785 18.2083 1.79167C17.7021 1.2855 17.0158 1.00078 16.3 1Z" stroke="#3F4765" stroke-width="2" stroke-linecap="round"/>
</svg>
