<svg width="26" height="26" viewBox="0 0 26 26" fill="none" xmlns="http://www.w3.org/2000/svg">
<path d="M8.46594 11.1247H2.33986C1.71959 11.1242 1.12488 10.8776 0.686219 10.439C0.247557 10.0005 0.00076739 9.40588 0 8.78561V2.73561C0.00076739 2.11535 0.247557 1.52072 0.686219 1.08219C1.12488 0.643665 1.71959 0.39706 2.33986 0.396484H8.46594C9.08608 0.397251 9.6806 0.643941 10.1191 1.08245C10.5576 1.52095 10.8043 2.11547 10.8051 2.73561V8.78561C10.8043 9.40576 10.5576 10.0003 10.1191 10.4388C9.6806 10.8773 9.08608 11.124 8.46594 11.1247ZM2.33986 2.20808C2.19994 2.20827 2.06579 2.26389 1.96679 2.36276C1.86778 2.46163 1.81198 2.5957 1.81159 2.73561V8.78561C1.81198 8.92553 1.86778 9.0596 1.96679 9.15847C2.06579 9.25734 2.19994 9.31296 2.33986 9.31315H8.46594C8.60579 9.31296 8.73986 9.25732 8.83875 9.15843C8.93764 9.05954 8.99329 8.92547 8.99348 8.78561V2.73561C8.99329 2.59576 8.93764 2.46169 8.83875 2.3628C8.73986 2.26391 8.60579 2.20827 8.46594 2.20808H2.33986ZM8.49565 25.3965H2.36957C1.74923 25.3957 1.15453 25.149 0.715885 24.7103C0.277243 24.2717 0.0304772 23.677 0.0297102 23.0566V17.0074C0.0304775 16.3871 0.277267 15.7925 0.715929 15.3539C1.15459 14.9154 1.7493 14.6688 2.36957 14.6682H8.49565C9.11554 14.6694 9.70969 14.9162 10.1479 15.3547C10.5861 15.7932 10.8326 16.3875 10.8333 17.0074V23.0566C10.8328 23.6766 10.5864 24.2711 10.1481 24.7098C9.70993 25.1484 9.11567 25.3953 8.49565 25.3965ZM2.36957 16.4798C2.22965 16.48 2.0955 16.5356 1.9965 16.6345C1.89749 16.7334 1.84169 16.8674 1.8413 17.0074V23.0566C1.8415 23.1967 1.89721 23.3309 1.99624 23.43C2.09527 23.529 2.22952 23.5847 2.36957 23.5849H8.49565C8.63557 23.5845 8.76964 23.5287 8.86851 23.4297C8.96738 23.3307 9.023 23.1965 9.02319 23.0566V17.0074C9.023 16.8675 8.96736 16.7334 8.86846 16.6345C8.76957 16.5357 8.6355 16.48 8.49565 16.4798H2.36957ZM22.6609 25.3965H16.5348C15.9145 25.3957 15.3197 25.149 14.8811 24.7103C14.4425 24.2717 14.1957 23.677 14.1949 23.0566V17.0074C14.1957 16.3871 14.4425 15.7925 14.8811 15.3539C15.3198 14.9154 15.9145 14.6688 16.5348 14.6682H22.6609C23.281 14.669 23.8755 14.9157 24.314 15.3542C24.7525 15.7927 24.9992 16.3872 25 17.0074V23.0566C24.9994 23.6769 24.7528 24.2716 24.3143 24.7103C23.8758 25.1489 23.2811 25.3957 22.6609 25.3965ZM16.5348 16.4834C16.3949 16.4836 16.2607 16.5393 16.1617 16.6381C16.0627 16.737 16.0069 16.8711 16.0065 17.011V23.0603C16.0067 23.2003 16.0624 23.3346 16.1615 23.4336C16.2605 23.5326 16.3947 23.5883 16.5348 23.5885H22.6609C22.8008 23.5881 22.9349 23.5323 23.0337 23.4333C23.1326 23.3343 23.1882 23.2002 23.1884 23.0603V17.0074C23.1882 16.8675 23.1326 16.7334 23.0337 16.6345C22.9348 16.5357 22.8007 16.48 22.6609 16.4798L16.5348 16.4834ZM19.6014 11.1247C18.5426 11.1169 17.5098 10.7957 16.6332 10.2017C15.7567 9.60774 15.0756 8.76753 14.6758 7.78703C14.2761 6.80653 14.1755 5.72962 14.3869 4.69207C14.5983 3.65452 15.1121 2.70278 15.8636 1.95683C16.6151 1.21088 17.5707 0.70411 18.6097 0.500414C19.6488 0.296717 20.725 0.405211 21.7025 0.812217C22.68 1.21922 23.5151 1.90652 24.1026 2.78747C24.6901 3.66841 25.0036 4.70356 25.0036 5.76243C24.9965 7.18932 24.4238 8.55517 23.4111 9.5604C22.3984 10.5656 21.0284 11.1282 19.6014 11.1247ZM19.6014 2.2117C18.9009 2.21957 18.2184 2.43448 17.6397 2.82938C17.0611 3.22429 16.6122 3.78155 16.3496 4.43101C16.0869 5.08048 16.0223 5.79312 16.1637 6.47925C16.3052 7.16537 16.6465 7.79432 17.1446 8.28692C17.6427 8.77952 18.2755 9.11375 18.9631 9.24756C19.6508 9.38137 20.3627 9.30876 21.0092 9.03888C21.6556 8.76901 22.2079 8.31392 22.5963 7.7309C22.9847 7.14788 23.192 6.46299 23.192 5.76243C23.1863 4.81525 22.805 3.90904 22.1318 3.24267C21.4587 2.57631 20.5486 2.20422 19.6014 2.20808V2.2117Z" fill="#AD2B39"/>
</svg>
