<svg width="98" height="98" viewBox="0 0 98 98" fill="none" xmlns="http://www.w3.org/2000/svg">
<g filter="url(#filter0_d_579_2167)">
<rect x="21" y="16" width="50" height="50" rx="25" fill="#EB3352"/>
</g>
<path d="M50.8712 48C50.7799 48.0001 50.6886 47.9943 50.598 47.9828C47.6595 47.602 44.9289 46.2616 42.8303 44.1697C40.7386 42.071 39.3984 39.3404 39.0176 36.4019C38.9787 36.1004 39.0044 35.7941 39.0932 35.5033C39.1819 35.2125 39.3316 34.944 39.5323 34.7156C39.7302 34.4908 39.9737 34.3107 40.2466 34.1873C40.5195 34.0639 40.8156 34.0001 41.1151 34H43.2472C43.7459 33.9977 44.2292 34.1728 44.6105 34.4941C44.9919 34.8154 45.2465 35.262 45.3288 35.7538C45.3529 35.9148 45.3825 36.0731 45.4172 36.2306C45.4871 36.5445 45.5782 36.8532 45.6901 37.1546C45.8084 37.4847 45.799 37.8471 45.6637 38.1706C45.5284 38.4941 45.2771 38.7553 44.959 38.9029L44.6371 39.0529C45.4216 40.4347 46.5654 41.5784 47.9471 42.363L48.0975 42.0403C48.2455 41.7227 48.5069 41.4718 48.8302 41.3368C49.1536 41.2018 49.5157 41.1923 49.8457 41.3103C50.1478 41.422 50.4571 41.5133 50.7715 41.5835C50.928 41.6179 51.0862 41.6475 51.2448 41.6708C51.737 41.7528 52.1839 42.0074 52.5055 42.3888C52.8271 42.7703 53.0024 43.2538 53 43.7528V45.885C52.9999 46.1845 52.936 46.4806 52.8127 46.7536C52.6893 47.0266 52.5092 47.2702 52.2844 47.4681C51.8937 47.8113 51.3913 48.0004 50.8712 48Z" fill="white"/>
<path d="M52.334 34H49.6673C49.4905 34 49.3209 34.0702 49.1959 34.1953C49.0709 34.3203 49.0006 34.4899 49.0006 34.6667C49.0006 34.8435 49.0709 35.0131 49.1959 35.1381C49.3209 35.2631 49.4905 35.3333 49.6673 35.3333H50.7246L48.5292 37.5287C48.4673 37.5906 48.4182 37.6641 48.3847 37.745C48.3512 37.8258 48.334 37.9125 48.334 38.0001C48.334 38.0876 48.3512 38.1743 48.3847 38.2552C48.4182 38.336 48.4673 38.4095 48.5292 38.4714C48.5911 38.5333 48.6646 38.5824 48.7455 38.6159C48.8264 38.6494 48.913 38.6667 49.0006 38.6667C49.0881 38.6667 49.1748 38.6494 49.2557 38.6159C49.3366 38.5824 49.41 38.5333 49.4719 38.4714L51.6673 36.2761V37.3334C51.6673 37.5102 51.7375 37.6798 51.8626 37.8048C51.9876 37.9298 52.1572 38 52.334 38C52.5108 38 52.6804 37.9298 52.8054 37.8048C52.9304 37.6798 53.0007 37.5102 53.0007 37.3334V34.6667C53.0007 34.5791 52.9834 34.4924 52.95 34.4115C52.9165 34.3306 52.8674 34.2571 52.8054 34.1952C52.7435 34.1333 52.67 34.0842 52.5891 34.0507C52.5082 34.0172 52.4215 34 52.334 34Z" fill="#FFE1E1"/>
<defs>
<filter id="filter0_d_579_2167" x="0" y="0" width="98" height="98" filterUnits="userSpaceOnUse" color-interpolation-filters="sRGB">
<feFlood flood-opacity="0" result="BackgroundImageFix"/>
<feColorMatrix in="SourceAlpha" type="matrix" values="0 0 0 0 0 0 0 0 0 0 0 0 0 0 0 0 0 0 127 0" result="hardAlpha"/>
<feOffset dx="3" dy="8"/>
<feGaussianBlur stdDeviation="12"/>
<feComposite in2="hardAlpha" operator="out"/>
<feColorMatrix type="matrix" values="0 0 0 0 1 0 0 0 0 0.423529 0 0 0 0 0.294118 0 0 0 0.16 0"/>
<feBlend mode="normal" in2="BackgroundImageFix" result="effect1_dropShadow_579_2167"/>
<feBlend mode="normal" in="SourceGraphic" in2="effect1_dropShadow_579_2167" result="shape"/>
</filter>
</defs>
</svg>
