<svg width="32" height="32" viewBox="0 0 32 32" fill="none" xmlns="http://www.w3.org/2000/svg">
<path fill-rule="evenodd" clip-rule="evenodd" d="M16 29C11.1456 29 7 28.213 7 25.0613C7 21.9095 11.1193 19 16 19C20.8544 19 25 21.8813 25 25.0331C25 28.1835 20.8807 29 16 29Z" fill="#EB3352"/>
<path fill-rule="evenodd" clip-rule="evenodd" d="M16.0007 17C19.3143 17 22 14.3143 22 11.0006C22 7.68698 19.3143 5 16.0007 5C12.687 5 10 7.68698 10 11.0006C9.98888 14.3031 12.6559 16.9888 15.9584 17C15.9733 17 15.987 17 16.0007 17Z" fill="#EB3352"/>
</svg>
