<svg width="9" height="9" viewBox="0 0 9 9" fill="none" xmlns="http://www.w3.org/2000/svg">
<path d="M6.54071 8.17723C6.47835 8.1772 6.41693 8.16205 6.36171 8.13309L4.40097 7.10229L2.44023 8.13309C2.37669 8.16648 2.30508 8.18144 2.23349 8.17626C2.16189 8.17109 2.09318 8.14599 2.0351 8.1038C1.97703 8.06161 1.93191 8.00402 1.90486 7.93753C1.8778 7.87105 1.86989 7.79832 1.88201 7.72757L2.25654 5.54425L0.670326 3.99825C0.61894 3.94813 0.582597 3.88464 0.565403 3.81495C0.548208 3.74526 0.550849 3.67216 0.573026 3.60389C0.595202 3.53562 0.636031 3.47492 0.690898 3.42864C0.745765 3.38236 0.812483 3.35235 0.883512 3.342L3.07566 3.02344L4.05592 1.03712C4.09135 0.977131 4.14181 0.927416 4.20232 0.89288C4.26283 0.858344 4.33129 0.840179 4.40096 0.840179C4.47063 0.840179 4.5391 0.858344 4.59961 0.89288C4.66011 0.927416 4.71057 0.977131 4.746 1.03712L5.72628 3.0234L7.91842 3.34196C7.98945 3.35231 8.05617 3.38232 8.11104 3.4286C8.1659 3.47488 8.20673 3.53559 8.22891 3.60385C8.25109 3.67212 8.25373 3.74523 8.23653 3.81492C8.21934 3.88461 8.18299 3.9481 8.13161 3.99821L6.5454 5.54421L6.91993 7.72753C6.9294 7.78275 6.92669 7.83937 6.91199 7.89344C6.8973 7.9475 6.87097 7.9977 6.83485 8.04053C6.79873 8.08336 6.75369 8.11779 6.70288 8.14139C6.65207 8.165 6.59673 8.17724 6.54071 8.17723Z" fill="#EB3352"/>
</svg>
