<svg width="9" height="8" viewBox="0 0 9 8" fill="none" xmlns="http://www.w3.org/2000/svg">
<path d="M6.61621 0.0178528C7.17895 0.0178528 7.72029 0.235321 8.11853 0.625533C8.51719 1.01492 8.74003 1.54013 8.74003 2.08996V5.33146C8.74003 6.47625 7.78744 7.40357 6.61621 7.40357H2.47056C1.29934 7.40357 0.347168 6.47625 0.347168 5.33146V2.08996C0.347168 0.94517 1.29514 0.0178528 2.47056 0.0178528H6.61621ZM7.09083 2.1515C7.0027 2.14699 6.91878 2.17612 6.85541 2.23357L4.96324 3.71071C4.71985 3.90807 4.37112 3.90807 4.12395 3.71071L2.23556 2.23357C2.10505 2.13919 1.92461 2.1515 1.81592 2.26229C1.70261 2.37308 1.69003 2.54951 1.78612 2.67261L1.8411 2.72595L3.75047 4.18258C3.98547 4.36311 4.27041 4.46159 4.56878 4.46159C4.8663 4.46159 5.15628 4.36311 5.39086 4.18258L7.28386 2.70133L7.31744 2.6685C7.41773 2.54951 7.41773 2.37718 7.31282 2.25819C7.25449 2.19705 7.17434 2.15971 7.09083 2.1515Z" fill="#EB3352"/>
</svg>
