<svg width="13" height="13" viewBox="0 0 13 13" fill="none" xmlns="http://www.w3.org/2000/svg">
<path d="M3.5 3C3.5 2.40666 3.67595 1.82664 4.00559 1.33329C4.33524 0.839943 4.80377 0.455426 5.35195 0.228363C5.90013 0.00129985 6.50333 -0.0581102 7.08527 0.0576455C7.66721 0.173401 8.20176 0.459124 8.62132 0.878681C9.04088 1.29824 9.3266 1.83279 9.44236 2.41473C9.55811 2.99667 9.4987 3.59987 9.27164 4.14805C9.04458 4.69623 8.66006 5.16477 8.16671 5.49441C7.67336 5.82405 7.09334 6 6.5 6C5.70435 6 4.94129 5.68393 4.37868 5.12132C3.81607 4.55871 3.5 3.79565 3.5 3ZM11.5 13H1.5C1.10218 13 0.720644 12.842 0.43934 12.5607C0.158035 12.2794 0 11.8978 0 11.5C0 10.3065 0.474106 9.16193 1.31802 8.31802C2.16193 7.47411 3.30653 7 4.5 7H8.5C9.69347 7 10.8381 7.47411 11.682 8.31802C12.5259 9.16193 13 10.3065 13 11.5C13 11.8978 12.842 12.2794 12.5607 12.5607C12.2794 12.842 11.8978 13 11.5 13Z" fill="#8991AC"/>
</svg>
