<svg width="25" height="25" viewBox="0 0 25 25" fill="none" xmlns="http://www.w3.org/2000/svg">
<path fill-rule="evenodd" clip-rule="evenodd" d="M12.5 22.6562C8.70748 22.6562 5.46875 22.0414 5.46875 19.5791C5.46875 17.1168 8.68693 14.8438 12.5 14.8438C16.2925 14.8438 19.5312 17.0948 19.5312 19.5571C19.5312 22.0184 16.3131 22.6562 12.5 22.6562Z" fill="#1C304F"/>
<path fill-rule="evenodd" clip-rule="evenodd" d="M12.5005 13.2812C15.0893 13.2812 17.1875 11.183 17.1875 8.59424C17.1875 6.00545 15.0893 3.90625 12.5005 3.90625C9.91174 3.90625 7.81253 6.00545 7.81253 8.59424C7.80381 11.1743 9.88746 13.2725 12.4675 13.2812C12.4791 13.2812 12.4898 13.2812 12.5005 13.2812Z" fill="#1C304F"/>
</svg>
