<svg width="16" height="13" viewBox="0 0 16 13" fill="none" xmlns="http://www.w3.org/2000/svg">
<path d="M13.2923 0.845382C13.2787 0.85857 13.266 0.872608 13.2541 0.887409L6.61964 9.34051L2.62137 5.34033C2.34977 5.08725 1.99054 4.94948 1.61937 4.95603C1.24819 4.96257 0.894051 5.11294 0.63155 5.37544C0.36905 5.63794 0.218686 5.99208 0.212137 6.36326C0.205588 6.73443 0.343365 7.09366 0.596442 7.36525L5.65111 12.4218C5.78728 12.5578 5.94943 12.6649 6.12789 12.7368C6.30635 12.8086 6.49747 12.8439 6.68983 12.8403C6.8822 12.8367 7.07187 12.7945 7.24755 12.716C7.42322 12.6375 7.58129 12.5245 7.71233 12.3836L15.3383 2.8512C15.5979 2.57866 15.7399 2.21487 15.7335 1.83849C15.7271 1.4621 15.5728 1.10337 15.304 0.839831C15.0352 0.576297 14.6735 0.429143 14.297 0.430181C13.9206 0.43122 13.5597 0.580368 13.2923 0.845382Z" fill="#EB3352"/>
</svg>
