<svg width="31" height="31" viewBox="0 0 31 31" fill="none" xmlns="http://www.w3.org/2000/svg">
<path d="M15.6184 29.0057C12.0719 29.0057 8.67061 27.5968 6.16285 25.089C3.65509 22.5813 2.24624 19.18 2.24624 15.6335C2.24624 12.087 3.65509 8.68575 6.16285 6.17799C8.67061 3.67023 12.0719 2.26138 15.6184 2.26138C19.1649 2.26138 22.5661 3.67023 25.0739 6.17799C27.5817 8.68575 28.9905 12.087 28.9905 15.6335C28.9905 19.18 27.5817 22.5813 25.0739 25.089C22.5661 27.5968 19.1649 29.0057 15.6184 29.0057ZM15.6184 30.916C19.6715 30.916 23.5587 29.3059 26.4247 26.4398C29.2907 23.5738 30.9008 19.6867 30.9008 15.6335C30.9008 11.5804 29.2907 7.69321 26.4247 4.8272C23.5587 1.96118 19.6715 0.351074 15.6184 0.351074C11.5652 0.351074 7.67808 1.96118 4.81206 4.8272C1.94605 7.69321 0.335938 11.5804 0.335938 15.6335C0.335938 19.6867 1.94605 23.5738 4.81206 26.4398C7.67808 29.3059 11.5652 30.916 15.6184 30.916Z" fill="#EB3352"/>
</svg>
